<?xml version="1.0" standalone="no"?><svg xmlns="http://www.w3.org/2000/svg" viewBox="0 0 1440 320"><path fill="#f3f4f5" fill-opacity="1" d="M0,128L10.9,138.7C21.8,149,44,171,65,186.7C87.3,203,109,213,131,202.7C152.7,192,175,160,196,170.7C218.2,181,240,235,262,234.7C283.6,235,305,181,327,149.3C349.1,117,371,107,393,101.3C414.5,96,436,96,458,80C480,64,502,32,524,21.3C545.5,11,567,21,589,53.3C610.9,85,633,139,655,176C676.4,213,698,235,720,240C741.8,245,764,235,785,245.3C807.3,256,829,288,851,298.7C872.7,309,895,299,916,266.7C938.2,235,960,181,982,181.3C1003.6,181,1025,235,1047,250.7C1069.1,267,1091,245,1113,245.3C1134.5,245,1156,267,1178,272C1200,277,1222,267,1244,261.3C1265.5,256,1287,256,1309,266.7C1330.9,277,1353,299,1375,261.3C1396.4,224,1418,128,1429,80L1440,32L1440,320L1429.1,320C1418.2,320,1396,320,1375,320C1352.7,320,1331,320,1309,320C1287.3,320,1265,320,1244,320C1221.8,320,1200,320,1178,320C1156.4,320,1135,320,1113,320C1090.9,320,1069,320,1047,320C1025.5,320,1004,320,982,320C960,320,938,320,916,320C894.5,320,873,320,851,320C829.1,320,807,320,785,320C763.6,320,742,320,720,320C698.2,320,676,320,655,320C632.7,320,611,320,589,320C567.3,320,545,320,524,320C501.8,320,480,320,458,320C436.4,320,415,320,393,320C370.9,320,349,320,327,320C305.5,320,284,320,262,320C240,320,218,320,196,320C174.5,320,153,320,131,320C109.1,320,87,320,65,320C43.6,320,22,320,11,320L0,320Z"></path></svg>